<?xml version="1.0" standalone="no"?>
<!DOCTYPE svg PUBLIC "-//W3C//DTD SVG 1.1//EN" "http://www.w3.org/Graphics/SVG/1.1/DTD/svg11.dtd" >
<!--
2013-9-30: Created.
-->
<svg>
<metadata>
Created by iconfont
</metadata>
<defs>

<font id="iconfont" horiz-adv-x="1024" >
  <font-face
    font-family="iconfont"
    font-weight="500"
    font-stretch="normal"
    units-per-em="1024"
    ascent="896"
    descent="-128"
  />
    <missing-glyph />
    
    <glyph glyph-name="nav_icon_task" unicode="&#58880;" d="M840.454 833.558h-638.605c-76.445 0-139.409-63.68-139.409-141.007v-614.048c0-77.326 62.963-141.007 139.408-141.007h638.605c76.454 0 139.408 63.68 139.408 141.007v614.048c0 77.326-58.454 141.007-139.408 141.007zM912.409 73.95000000000005c0-40.931-31.473-72.772-71.954-72.772h-638.605c-40.473 0-71.954 31.84-71.954 72.772v618.603c0 40.931 31.481 72.772 71.954 72.772h638.605c40.481 0 71.954-31.84 71.954-72.772v-618.603zM399.73 610.6800000000001l-98.936-100.065-44.973 45.477c-13.5 13.647-35.981 13.647-44.973 0-13.5-13.638-13.5-36.386 0-45.477l71.954-72.781c4.5-4.546 13.492-9.092 26.981-9.092 13.5 0 13.5 4.546 26.981 9.092l121.426 122.813c13.5 13.647 13.5 36.386 0 45.487-26.981 13.638-44.973 13.638-58.463 4.546zM813.473 556.092h-310.308c-22.481 0-31.481-13.638-31.481-31.84 0-22.739 13.5-31.84 31.481-31.84h310.316c22.481 0 31.473 13.647 31.473 31.84 0 18.202-13.5 31.84-31.481 31.84zM318.775 351.41600000000005c-58.463 0-103.436-45.487-103.436-104.62 0-59.125 44.973-104.611 103.436-104.611 58.473 0 103.436 45.487 103.436 104.611 0 63.68-49.463 104.62-103.436 104.62zM318.775 214.957c-22.481 0-35.973 13.647-35.973 36.386 0 22.747 13.492 36.395 35.973 36.395 22.492 0 35.981-13.647 35.981-36.395 0-22.739-17.992-36.386-35.981-36.386zM813.473 283.192h-310.308c-22.481 0-31.481-13.647-31.481-31.849 0-18.184 13.5-31.84 31.481-31.84h310.316c22.481 0 31.473 13.647 31.473 31.84 0 18.202-13.5 31.84-31.481 31.84z"  horiz-adv-x="1044" />

    
    <glyph glyph-name="jiankong" unicode="&#58942;" d="M933.376 861.696H90.624C40.448 861.696 0 821.248 0 771.584v-531.456c0-49.664 40.448-90.624 90.624-90.624h388.096v-176.64H122.368c-18.432 0-33.28-14.848-33.28-33.28s14.848-33.28 33.28-33.28h779.264c18.432 0 33.28 14.848 33.28 33.28s-14.848 33.28-33.28 33.28h-356.352v176.64h388.096c49.664 0 90.624 40.448 90.624 90.624V771.584c0 49.664-40.448 90.112-90.624 90.112z m24.064-617.984c0-16.384-13.312-29.696-29.696-29.696H96.256c-16.384 0-29.696 13.312-29.696 29.696V767.488c0 16.384 13.312 29.696 29.696 29.696h831.488c16.384 0 29.696-13.312 29.696-29.696v-523.776zM761.856 593.408c-5.632 6.144-13.824 9.216-21.504 8.192-8.192-1.024-15.36-5.632-19.968-12.288l-111.616-171.008-66.56 250.88c-3.072 10.752-11.264 18.944-21.504 20.992-10.24 2.048-20.992-2.56-27.136-11.776L347.648 463.872 275.968 547.84c-9.728 11.264-25.6 12.8-37.376 3.584L154.112 481.28c-12.288-10.24-14.336-28.672-5.12-41.472 9.216-12.8 26.624-15.36 38.4-5.12l64.512 53.248 77.824-90.624c5.632-6.656 13.312-10.24 22.016-9.728 8.192 0.512 15.872 5.12 20.48 12.288l132.096 194.56 67.072-251.904c3.072-10.752 11.264-18.944 22.016-20.992 1.536-0.512 3.072-0.512 4.608-0.512 8.704 0 17.408 4.608 22.528 12.8L746.496 527.36l87.04-90.112c10.752-11.264 28.672-11.264 38.912 0.512 10.752 11.776 10.24 30.208-0.512 41.984l-110.08 113.664z"  horiz-adv-x="1024" />

    
    <glyph glyph-name="nav_icon_function_n" unicode="&#59086;" d="M512 833.024c-247.296 0-449.024-201.216-449.024-449.024 0-247.296 201.216-449.024 449.024-449.024 247.296 0 449.024 201.216 449.024 449.024 0 247.296-201.216 449.024-449.024 449.024z m0-828.928c-209.408 0-379.904 170.496-379.904 379.904 0 209.408 170.496 379.904 379.904 379.904 209.408 0 379.904-170.496 379.904-379.904 0-209.408-170.496-379.904-379.904-379.904zM700.928 439.808L467.456 609.7919999999999c-13.824 10.24-30.72 14.336-47.616 11.264-16.896-2.56-31.744-11.776-41.984-25.6-8.192-10.752-12.288-24.064-12.288-37.888v-339.968c0-16.896 6.656-33.28 18.944-45.056 12.288-12.288 28.16-18.944 45.056-18.944 13.824 0 26.624 4.096 37.376 12.288l233.472 169.984c13.824 10.24 23.04 25.088 25.6 41.984 2.56 16.896-1.536 33.792-11.264 47.616-3.584 5.632-8.192 10.24-13.824 14.336zM430.08 218.11199999999997V558.0799999999999l233.472-169.984L430.08 218.11199999999997z"  horiz-adv-x="1024" />

    
    <glyph glyph-name="login_icon_password" unicode="&#58902;" d="M507.318186 805.059091a259.352394 259.352394 0 0 0 267.347226-258.712807h95.938001a363.285227 363.285227 0 0 1-726.122744 0h95.938a259.288435 259.288435 0 0 0 267.21931 258.712807z m323.886688-317.426863H191.938A93.635488 93.635488 0 0 1 96 396.299252v-433.447885a93.635488 93.635488 0 0 1 95.938-91.269017h639.586667a93.635488 93.635488 0 0 1 95.938 91.269017V396.299252a93.699447 93.699447 0 0 1-95.938 91.332976z m-242.595223-430.249951a70.354533 70.354533 0 0 0-71.825583-68.499732H506.61464a70.354533 70.354533 0 0 0-71.825582 68.499732v185.480133A70.354533 70.354533 0 0 0 506.61464 311.362142h10.233387A70.354533 70.354533 0 0 0 588.481734 243.246162v-185.480133z m0 0"  horiz-adv-x="1024" />

    
    <glyph glyph-name="login_icon_user" unicode="&#58903;" d="M713.044802 163.089262V275.900963a250.246165 250.246165 0 0 1 64.881341 108.062505 55.382947 55.382947 0 0 0 38.285837 49.68391c52.533428 49.68391 0 138.092044 0 138.092044V731.45858C768.28162 877.14934 586.49696 896 586.49696 896s-182.661434-18.704531-231.030182-164.395291v-159.719158s-52.825687-88.554263 0-138.092044a55.456011 55.456011 0 0 0 38.431966-49.68391 250.026971 250.026971 0 0 1 65.758116-108.062505v-112.811701S-14.1669 22.366893 0.226821-128H1169.333064c14.612915 150.220763-456.580521 291.089262-456.58052 291.089262z m0 0"  horiz-adv-x="1170" />

    
    <glyph glyph-name="content_icon_gateway" unicode="&#58901;" d="M1040.384 378.88c0 9.472-0.256 19.2-2.816 28.16-23.552 75.008-47.36 149.76-71.936 224.512-11.776 35.84-24.832 44.288-62.72 44.288H355.84c-44.288 0-56.064-8.192-69.632-50.432-23.296-71.936-46.336-144.128-69.12-216.064-2.56-8.192-3.328-17.152-3.584-25.856-0.256-54.016-0.256-108.032-0.256-161.792 0.256-31.488 5.632-36.608 37.12-36.608h745.984c40.448 0 44.032 3.584 44.032 43.008 0.256 50.176 0.256 100.608 0 150.784z m-51.2-144.384h-724.48v107.52h724.736v-107.52z m-726.272 158.976c18.688 58.368 37.376 116.48 56.32 174.336 6.4 19.456 8.192 46.08 21.76 55.552 14.592 9.984 40.448 4.352 61.44 4.352 164.096 0.256 328.192-0.256 492.032 0.512 16.896 0.256 24.064-5.12 28.928-20.736 21.504-70.144 44.544-139.776 68.352-213.76H262.912v-0.256zM928.256 471.296c-0.512-26.112-23.296-48.128-49.664-47.616-25.856 0.512-47.872 22.528-47.616 47.36 0.256 26.624 22.272 48.384 48.896 48.64 26.624 0.256 48.896-22.016 48.384-48.384z m-94.976-153.088c12.288-6.144 26.368-8.96 32-17.408 4.352-6.144-0.256-27.904-3.072-28.416-18.432-3.072-37.632-3.584-56.064-1.024-3.328 0.512-8.96 22.528-4.608 29.44 5.376 8.704 19.712 11.264 31.744 17.408z m-414.976-4.864c23.296-0.256 33.792-7.68 33.536-24.32-0.256-17.152-11.776-24.576-36.608-24.32-23.296 0.256-33.536 7.936-33.28 25.088 0.256 17.408 9.728 23.552 36.352 23.552z m104.448 0c23.296-0.256 34.048-7.936 33.536-24.32-0.512-16.896-12.032-24.576-36.608-24.32-23.04 0.256-33.536 8.192-33.28 25.088 0.256 17.152 9.984 23.808 36.352 23.552z m203.52 0c26.88 0.256 37.12-7.168 36.096-24.832-1.28-22.016-17.408-23.808-34.56-23.808-24.32 0-36.352 8.448-35.072 25.6 1.536 21.76 17.664 23.808 33.536 23.04z m-99.84-48.896c-25.088-0.256-35.584 7.168-35.072 25.088 0.768 22.528 16.384 24.064 33.536 23.808 23.808-0.256 36.352-8.704 36.096-24.832-0.256-15.872-11.52-23.808-34.56-24.064z"  horiz-adv-x="1248" />

    
    <glyph glyph-name="content_icon_meter" unicode="&#58900;" d="M618.25792 208.64h-81.92l36.4544 128a23.8592 23.8592 0 0 1 0 16.64c-3.84 4.5056-16.64-8.2944-16.64-8.2944l-172.1344-168.96a22.1184 22.1184 0 0 1-8.3456-16.64 19.968 19.968 0 0 1 12.1856-8.3456H471.05792l-28.8256-128a15.36 15.36 0 0 1 3.84-16.64c7.68-4.4544 12.1856 3.84 16.64 8.3456l167.68 171.52a11.4688 11.4688 0 0 1 0 16.64 8.8576 8.8576 0 0 1-12.1344 5.7344z m217.6 502.3744H172.81792a45.3632 45.3632 0 0 1-44.8-44.1344V448a45.4144 45.4144 0 0 1 44.1344-44.1344H832.01792a45.3632 45.3632 0 0 1 44.8 44.1344V666.88a40.96 40.96 0 0 1-40.96 44.1344z m5.7344-263.0144a9.5744 9.5744 0 0 0-8.96-8.96H172.81792A9.5744 9.5744 0 0 0 163.85792 448V666.88a9.5744 9.5744 0 0 0 8.96 8.96H832.01792a9.5744 9.5744 0 0 0 8.96-8.96zM840.97792 896H183.05792A183.04 183.04 0 0 1 0.01792 710.4v-657.92A183.04 183.04 0 0 1 183.05792-128h657.92A183.04 183.04 0 0 1 1024.01792 52.48V710.4A183.04 183.04 0 0 1 840.97792 896z m119.04-843.52a118.4256 118.4256 0 0 0-119.04-116.48H183.05792a118.3744 118.3744 0 0 0-119.04 116.48V710.4a118.3232 118.3232 0 0 0 119.04 117.76h657.92a118.3232 118.3232 0 0 0 119.04-117.76v-657.92z m0 0"  horiz-adv-x="1024" />

    
    <glyph glyph-name="tab_icon_histogram" unicode="&#58905;" d="M85.985238 353.640669a60.63168 60.63168 0 0 0 121.26336 0v-240.787077a60.63168 60.63168 0 0 0-121.26336 0v240.787077z m364.301739 481.522987a60.88751 60.88751 0 0 0 121.77502 0v-722.310064a60.88751 60.88751 0 0 0-121.77502 0V835.163656zM25.097728-67.711132a57.305892 57.305892 0 0 0 60.88751 60.171186h850.378498a60.222352 60.222352 0 1 0 0-120.393538H85.985238A57.305892 57.305892 0 0 0 25.097728-67.711132zM815.100376 594.427746a60.63168 60.63168 0 0 0 121.26336 0v-481.574154a60.63168 60.63168 0 0 0-121.26336 0V594.427746z m0 0"  horiz-adv-x="1024" />

    
    <glyph glyph-name="tab_icon_table" unicode="&#58906;" d="M1279.9776 295.745544V851.191824a45.183209 45.183209 0 0 1-46.079193 44.799216H46.079194A45.183209 45.183209 0 0 1 0 851.191824v-934.383648a45.183209 45.183209 0 0 1 46.079194-44.799216h1187.819213a45.183209 45.183209 0 0 1 46.079193 44.799216V296.00154zM479.9916 339.200784V561.788889h296.954803V339.200784H479.9916z m296.954803-89.022442v-289.14694H479.9916v289.14694h296.954803zM91.518398 561.788889h296.954804V339.200784H91.518398V561.788889z m776.946404 0h319.9944V339.200784h-319.9944V561.788889z m319.9944 245.179709V650.87533H91.518398V806.968598h1096.940804z m-1096.940804-556.790256h296.954804v-289.14694H91.518398v289.14694z m776.946404-289.14694v289.14694h319.9944v-289.14694h-319.9944z m0 0"  horiz-adv-x="1280" />

    
    <glyph glyph-name="nav_icon_system" unicode="&#58896;" d="M124.54-63.73000000000002h689.42c33.11 0 59.95 26.84 59.95 59.95v439l-59.95-57.24v-381.77H124.54V745.59H545.7l60.61 58.4-1.57 1.56h-480.2c-33.1 0-59.95-26.84-59.95-59.95v-749.36c0.01-33.12 26.85-59.97 59.95-59.97z m0 0M977.77 856.92C950.73 882.86 920.87 896 889.02 896c-49.85 0-86.2-32.2-96.1-42.05C778.9 840.1 381.54 443.34 381.54 443.34c-3.11-3.18-5.4-7.06-6.56-11.38-10.75-39.78-64.71-216.36-65.23-218.12-2.78-9.04-0.29-18.91 6.37-25.5a24.95 24.95 0 0 1 17.71-7.35c2.57 0 5.17 0.38 7.71 1.17 1.83 0.62 184.06 59.54 214.05 68.49 3.95 1.17 7.55 3.31 10.51 6.21 18.92 18.68 384.16 378.24 413.72 408.77 30.56 31.53 45.75 64.31 45.17 97.5-0.56 32.79-16.51 64.36-47.22 93.79z m-41-149.58c-16.69-17.21-147.3-146.27-388.22-383.62l-18.44-18.17c-27.62-8.55-93.76-29.8-143.76-45.93 16.1 53.16 35.42 117.38 44.02 147.75C481.86 458.79 822.28 798.7 835.22 811.46c2.52 2.52 25.5 24.58 53.8 24.58 16.07 0 31.55-7.33 47.27-22.41 18.8-18.03 28.48-35.36 28.74-51.55 0.3-16.64-9.21-35.05-28.26-54.74z m0 0"  horiz-adv-x="1025" />

    
    <glyph glyph-name="nav_icon_status" unicode="&#58892;" d="M937.95 864.65H92.13c-50.36 0-90.96-40.6-90.96-90.44v-533.39c0-49.84 40.6-90.96 90.96-90.96h389.51v-177.28H123.99c-18.5 0-33.4-14.9-33.4-33.4 0-18.49 14.9-33.4 33.4-33.4h782.1c18.5 0 33.4 14.9 33.4 33.4s-14.9 33.4-33.4 33.4H548.44V149.86h389.51c49.85 0 90.96 40.6 90.96 90.96V774.21c-0.01 49.84-40.6 90.44-90.96 90.44z m24.15-620.24c0-16.45-13.36-29.81-29.81-29.81H97.78c-16.44 0-29.81 13.36-29.81 29.81V770.1c0 16.45 13.36 29.81 29.81 29.81H932.3c16.44 0 29.81-13.36 29.81-29.81v-525.69z m0 0M765.8 595.39c-5.65 6.16-13.87 9.25-21.58 8.22-8.22-1.02-15.42-5.65-20.04-12.33L612.16 419.64l-66.8 251.8c-3.08 10.79-11.31 19.01-21.58 21.07-10.28 2.05-21.07-2.57-27.23-11.82L350.09 465.38l-71.94 84.27c-9.76 11.3-25.69 12.85-37.51 3.6l-84.79-70.4c-12.33-10.28-14.39-28.78-5.14-41.63 9.25-12.84 26.72-15.41 38.54-5.14L254 489.52l78.11-90.96c5.66-6.68 13.36-10.28 22.1-9.76 8.22 0.51 15.93 5.13 20.55 12.33L507.34 596.4l67.31-252.82c3.08-10.79 11.31-19.01 22.1-21.07 1.54-0.51 3.08-0.51 4.63-0.51 8.73 0 17.47 4.63 22.61 12.85L750.4 529.0899999999999l87.36-90.44c10.79-11.31 28.78-11.31 39.05 0.51 10.79 11.82 10.28 30.32-0.51 42.14L765.8 595.39z"  horiz-adv-x="1028" />

    
    <glyph glyph-name="nav_icon_home" unicode="&#58895;" d="M1008.138738 357.972585a48.683785 48.683785 0 0 0-68.934603-0.409107l-425.011486 421.073827-430.892406-421.278381A48.8372 48.8372 0 0 0 15.183856 427.367434l465.359706 454.82519A49.195169 49.195169 0 0 0 488.060912 887.050775a48.325816 48.325816 0 0 0 8.43784 5.420673 46.280279 46.280279 0 0 0 8.131011 1.63643 48.888338 48.888338 0 0 0 10.227685 1.840984 47.405324 47.405324 0 0 0 8.182149-1.534153 48.990615 48.990615 0 0 0 10.227686-2.096676 51.496398 51.496398 0 0 0 7.773041-5.113843 47.507601 47.507601 0 0 0 7.977595-5.113843L1008.138738 427.111741a48.939477 48.939477 0 0 0 0-69.139156z m-849.409311-30.683058a48.479231 48.479231 0 0 0 48.223538-48.786061v-306.830576a179.751579 179.751579 0 0 1 24.751-1.380738h584.307694v308.467006a48.223539 48.223539 0 1 0 96.447078 0v-321.047059A80.031642 80.031642 0 0 0 818.926549-126.81972499999995H231.908519c-105.447441 0-121.198078 52.979413-121.198078 84.531824v321.047059a48.479231 48.479231 0 0 0 48.223539 48.786062z m0 0"  horiz-adv-x="1024" />

    
    <glyph glyph-name="content_icon_search" unicode="&#58884;" d="M1000.134544-36.086926l-192.280118 189.928261a443.928707 443.928707 0 0 1 103.799482 285.655156 453.272567 453.272567 0 1 1-181.029347-358.753382l193.932773-191.390226a53.838433 53.838433 0 0 1 75.57721 0 52.122214 52.122214 0 0 1 0 74.560191zM86.660969 439.432928a369.559207 369.559207 0 1 0 369.495643-364.728368 367.143787 367.143787 0 0 0-369.495643 364.728368z m0 0"  horiz-adv-x="1024" />

    
    <glyph glyph-name="nav_icon_drop" unicode="&#58885;" d="M764.346015 434.620784a63.410049 63.410049 0 0 0 22.865334-52.173819 69.460326 69.460326 0 0 0-22.865334-50.209444l-432.869838-443.320317a55.002521 55.002521 0 0 0-79.596505 0 59.166997 59.166997 0 0 0 0 81.875181L663.769977 383.46844 251.879672 797.087396a59.245572 59.245572 0 0 0 0 81.953755 55.002521 55.002521 0 0 0 79.596505 0z m0 0"  horiz-adv-x="1024" />

    
    <glyph glyph-name="nav_icon_charge" unicode="&#58886;" d="M1005.906265 263.91103699999996a508.392975 508.392975 0 0 1-249.921911 317.393661c-14.845833 8.344382-30.715516 15.357758-45.766118 22.883059a3.122744 3.122744 0 0 0 0.460732 0.921465l7.781264 7.115761a229.342516 229.342516 0 0 1 62.81323 85.849866 369.917192 369.917192 0 0 1 11.723088 38.087239 93.477552 93.477552 0 0 1-30.40836 99.927811 123.271602 123.271602 0 0 1-131.667177 17.149496 6.655028 6.655028 0 0 0-8.753922 0.716695 167.39956 167.39956 0 0 1-220.127861 1.177429 6.757413 6.757413 0 0 0-8.651537-1.535776A126.394346 126.394346 0 0 1 315.728631 861.634969a98.647997 98.647997 0 0 1-85.081978-107.965037 226.015002 226.015002 0 0 1 60.355988-127.981315c7.013376-7.525301 14.436292-14.641062 21.961594-22.268748l-5.631178-2.662012a513.000302 513.000302 0 0 1-305.61938-432.116111 466.978221 466.978221 0 0 1 13.054094-155.471701A190.385004 190.385004 0 0 1 199.060865-127.96774900000003c209.223853 0.460733 418.550092 0 627.773945 0a183.320435 183.320435 0 0 1 156.546744 81.908042 206.868997 206.868997 0 0 1 33.223949 89.279765 508.034627 508.034627 0 0 1-10.648045 220.537401m-59.946448-173.337892a195.248294 195.248294 0 0 0-24.93076-80.884191 180.556039 180.556039 0 0 0-147.280897-71.669536H250.662931a159.362333 159.362333 0 0 0-161.717189 111.497321 498.410432 498.410432 0 0 0-6.962184 147.076127c11.467126 165.863784 162.689847 322.512913 307.871851 389.421544 1.586968 0.716695-41.824294 38.445587-47.660242 45.049423a172.928352 172.928352 0 0 0-51.550873 101.054046 63.171577 63.171577 0 0 0 57.284436 73.35889 255.553089 255.553089 0 0 0 71.669536-16.688764 134.329188 134.329188 0 0 0 183.422821-1.02385 5.426408 5.426408 0 0 1 7.269338-0.665503 91.122696 91.122696 0 0 0 105.763759-1.433391 59.17856 59.17856 0 0 0 18.941234-69.365872 303.059753 303.059753 0 0 0-34.759725-61.431031 508.085819 508.085819 0 0 0-65.0657-70.543301c-23.855717-21.449668 67.983674-31.995329 79.348415-40.595673 105.251833-79.553185 176.204674-141.086601 208.302388-262.156925a461.705391 461.705391 0 0 0 22.934251-190.640967m-313.861376 99.825426h-86.515369v36.193116h86.515369a33.479912 33.479912 0 1 1 0 66.908631h-86.515369v16.739956l67.471749 66.191936 1.842931 1.689353 18.122155 17.917384 4.607327 4.45375 15.920875 15.716106a33.223949 33.223949 0 0 1 0 47.250701 33.83826 33.83826 0 0 1-47.609049 0l-20.47701-20.016278-69.058717-67.778904L442.225363 448.460093l-20.477011 19.965085a33.735875 33.735875 0 0 1-47.609049 0 33.275142 33.275142 0 0 1 0-47.301894l15.920876-15.664913 4.556135-4.504942 18.122154-17.917384 2.047701-1.638161 62.864422-61.431031v-26.056996H391.749532a33.479912 33.479912 0 1 1 0-66.908631h86.515369v-36.141923H391.749532a33.428719 33.428719 0 0 1 0-66.857439h86.515369v-22.831867a33.684682 33.684682 0 0 1 67.318171 0v22.831867h86.515369a33.428719 33.428719 0 0 1 0 66.857439"  horiz-adv-x="1024" />

    
    <glyph glyph-name="nav_icon_warn" unicode="&#58888;" d="M511.565235 727.208791l54.371229-15.344655a260.859141 260.859141 0 0 0 201.066133-250.629371v-291.548451l21.738262-20.459541 27.16004-30.68931H201.807792l27.16004 30.68931 21.738262 20.459541V461.234765a262.189011 262.189011 0 0 0 201.066134 250.629371L511.565235 727.208791m0 168.791209a76.365235 76.365235 0 0 1-76.058342-76.723277v-35.804196a330.523876 330.523876 0 0 1-255.437363-322.237762v-260.859141L76.8 98.07792199999994v-51.148851h869.53047v51.148851l-103.269531 102.297702V461.234765a335.383017 335.383017 0 0 1-260.859141 322.237762v35.804196A74.626174 74.626174 0 0 1 527.881718 896H511.565235z m103.26953-920.679321H408.295704a103.26953 103.26953 0 0 1 206.539061 0z m0 0"  horiz-adv-x="1024" />

    
    <glyph glyph-name="nav_icon_resource" unicode="&#58890;" d="M726.323737 160.78541099999995H298.120337a30.717604 30.717604 0 0 1 0-61.435208h428.2034a30.717604 30.717604 0 0 1 0 61.435208zM694.838193 895.960067H211.957458A131.932109 131.932109 0 0 1 76.8 761.82653v-755.65306A131.932109 131.932109 0 0 1 211.957458-127.96006699999998h600.017198A131.932109 131.932109 0 0 1 947.132114 6.173469999999952V637.932193z m-2.04784-84.985371l174.373599-175.602303-104.74703-0.51196a59.48976 59.48976 0 0 0-69.626569 59.899328V810.974696z m196.029509-802.753385a74.643778 74.643778 0 0 0-73.773445-72.18637H217.640214a84.217431 84.217431 0 0 0-81.504042 74.74617V758.754769a84.831783 84.831783 0 0 0 77.920322 78.32989h419.807255l-0.51196-146.932539a101.214505 101.214505 0 0 1 116.573307-114.679055h138.792374v-567.251754z m0 0l-162.496125 360.419887H298.120337a30.717604 30.717604 0 0 1 0-61.435208h428.2034a30.717604 30.717604 0 0 1 0 61.435208z m0 0"  horiz-adv-x="1024" />

    
    <glyph glyph-name="nav_icon_config" unicode="&#58891;" d="M478.3104 417.6896h-349.696A128.768 128.768 0 0 0 0 546.304V767.4368A128.7168 128.7168 0 0 0 128.5632 896H349.696a128.7168 128.7168 0 0 0 128.5632-128.5632v-349.7472z m-327.68 396.6464a66.2016 66.2016 0 0 1-65.9456-66.56v-179.2a66.2528 66.2528 0 0 1 65.9456-66.56h244.1728v245.76a66.2016 66.2016 0 0 1-65.9456 66.56H150.4768z m744.9088-396.6464h-352.1024V767.4368A128.7168 128.7168 0 0 0 672 896h223.4368A128.7168 128.7168 0 0 0 1024 767.4368V546.304a128.768 128.768 0 0 0-128.6144-128.6144z m-267.6224 84.6336h244.5312a65.9456 65.9456 0 0 1 65.5872 66.1504V747.264a65.9456 65.9456 0 0 1-65.5872 66.1504h-179.2a65.9456 65.9456 0 0 1-65.536-66.1504v-244.9408zM349.696-128H128.5632A128.768 128.768 0 0 0 0 0.614400000000046v223.3856a128.768 128.768 0 0 0 128.5632 128.6144h349.696v-352A128.768 128.768 0 0 0 349.696-128z m-198.8608 396.0832a65.6896 65.6896 0 0 1-65.536-65.7408v-179.5584a65.6896 65.6896 0 0 1 65.536-65.7408h177.1008a65.7408 65.7408 0 0 1 65.536 65.7408v245.2992H150.8352zM895.3856-128h-223.3856a128.768 128.768 0 0 0-128.5632 128.6144v352h352A128.7168 128.7168 0 0 0 1024 224v-223.3856A128.7168 128.7168 0 0 0 895.3856-128z m-267.6224 396.0832v-245.2992a65.7408 65.7408 0 0 1 65.536-65.7408h179.2a65.7408 65.7408 0 0 1 65.5872 65.7408v179.5584a65.792 65.792 0 0 1-65.5872 65.792h-244.6848z m0 0"  horiz-adv-x="1024" />

    
    <glyph glyph-name="nav_icon_statement" unicode="&#58893;" d="M0-13.90393400000005m53.523761 0l963.427695 0q53.523761 0 53.523761-53.523761l0 0q0-53.523761-53.523761-53.523761l-963.427695 0q-53.523761 0-53.523761 53.523761l0 0q0 53.523761 53.523761 53.523761ZM160.571283 467.809913m53.52376 0l0 0q53.523761 0 53.523761-53.523761l0-321.142565q0-53.523761-53.523761-53.52376l0 0q-53.523761 0-53.52376 53.52376l0 321.142565q0 53.523761 53.52376 53.523761ZM374.666326 896m53.523761 0l0 0q53.523761 0 53.523761-53.523761l0-749.332652q0-53.523761-53.523761-53.52376l0 0q-53.523761 0-53.523761 53.52376l0 749.332652q0 53.523761 53.523761 53.523761ZM588.761369 681.904957m53.523761 0l0 0q53.523761 0 53.523761-53.523761l0-535.237609q0-53.523761-53.523761-53.52376l0 0q-53.523761 0-53.523761 53.52376l0 535.237609q0 53.523761 53.523761 53.523761ZM802.856413 521.333674m53.52376 0l0 0q53.523761 0 53.523761-53.523761l0-374.666326q0-53.523761-53.523761-53.52376l0 0q-53.523761 0-53.52376 53.52376l0 374.666326q0 53.523761 53.52376 53.523761Z"  horiz-adv-x="1077" />

    
    <glyph glyph-name="notice_icon_close" unicode="&#58894;" d="M602.112 384l402.432 402.944a63.7952 63.7952 0 0 1-90.112 90.2144L512 474.624 109.568 877.1584a63.7952 63.7952 0 0 1-90.112-90.2144L421.888 384 19.456-18.84159999999997a64 64 0 0 1 45.056-109.056 64.9216 64.9216 0 0 1 45.056 18.8416L512 293.47839999999997l402.432-402.5344a64.9216 64.9216 0 0 1 45.056-18.8416 64 64 0 0 1 45.056 109.056z m-118.784 32.6656"  horiz-adv-x="1024" />

    
    <glyph glyph-name="content_icon_required" unicode="&#58883;" d="M907.654551 215.727709L629.903578 383.999573l277.750973 168.271865A63.059284 63.059284 0 0 1 928.560539 639.991254a56.574161 56.574161 0 0 1-83.282627 22.015284L567.441608 493.734674V830.278403A55.123542 55.123542 0 0 1 511.891414 895.982934a63.99792 63.99792 0 0 1-62.547301-65.875193v-336.373067l-277.580312 168.101203a50.430361 50.430361 0 0 1-76.28552-22.015285 69.971059 69.971059 0 0 1 20.820656-87.719815L393.96458 383.999573 116.128276 215.89837a63.059284 63.059284 0 0 1-20.905987-87.719816 61.949987 61.949987 0 0 1 55.635525-29.268382 40.617347 40.617347 0 0 1 27.817763 7.253098l277.665642 168.271864v-336.373068A55.123542 55.123542 0 0 1 511.891414-127.983787a63.91259 63.91259 0 0 1 62.46197 65.875192V274.179143l277.750973-168.271865a40.105363 40.105363 0 0 1 27.817762-7.338428 83.965271 83.965271 0 0 1 55.550195 29.268382 82.599982 82.599982 0 0 1-27.903093 87.890477z m0 0"  horiz-adv-x="1024" />

    
    <glyph glyph-name="tab_icon_fold" unicode="&#58881;" d="M1186.800339 298.706824H79.976809a85.594353 85.594353 0 0 0 0 170.706823h1106.82353a85.594353 85.594353 0 0 0 0-170.706823z m0 426.586352H79.976809a85.594353 85.594353 0 0 0 0 170.706824h1106.82353a85.594353 85.594353 0 0 0 0-170.706824zM79.976809 42.586353h1106.82353a85.534118 85.534118 0 0 0 0-170.586353H79.976809a85.534118 85.534118 0 0 0 0 170.586353z m0 0"  horiz-adv-x="1266" />

    


  </font>
</defs>
</svg>
